<?xml version="1.0" encoding="UTF-8"?>
<svg width="600" height="60" xmlns="http://www.w3.org/2000/svg" xmlns:svg="http://www.w3.org/2000/svg">

 <g>
  <title>Layer 1</title>
  <rect id="svg_2" height="18" width="18" stroke-width="0.5" stroke="#f4ebeb" fill="#000000" y="8" x="7"/>
  <rect id="svg_3" height="18" width="18" stroke-width="0.5" stroke="#f4ebeb" fill="#000000" y="8" x="25"/>
  <rect id="svg_4" height="18" width="18" stroke-width="0.5" stroke="#f4ebeb" fill="#000000" y="8" x="43"/>
  <rect id="svg_5" height="18" width="18" stroke-width="0.5" stroke="#f4ebeb" fill="#FFFFFF" y="26" x="25"/>
  <rect id="svg_6" height="18" width="18" stroke-width="0.5" stroke="#f4ebeb" fill="#000000" y="8" x="76"/>
  <rect id="svg_7" height="18" width="18" stroke-width="0.5" stroke="#f4ebeb" fill="#000000" y="8" x="94"/>
  <rect id="svg_8" height="18" width="18" stroke-width="0.5" stroke="#f4ebeb" fill="#FFFFFF" y="8" x="112"/>
  <rect id="svg_9" height="18" width="18" stroke-width="0.5" stroke="#f4ebeb" fill="#000000" y="26" x="94"/>
  <rect id="svg_10" height="18" width="18" stroke-width="0.5" stroke="#f4ebeb" fill="#000000" y="8" x="144"/>
  <rect id="svg_11" height="18" width="18" stroke-width="0.5" stroke="#f4ebeb" fill="#FFFFFF" y="8" x="162"/>
  <rect id="svg_12" height="18" width="18" stroke-width="0.5" stroke="#f4ebeb" fill="#000000" y="8" x="180"/>
  <rect id="svg_13" height="18" width="18" stroke-width="0.5" stroke="#f4ebeb" fill="#000000" y="26" x="162"/>
  <rect id="svg_14" height="18" width="18" stroke-width="0.5" stroke="#f4ebeb" fill="#000000" y="8" x="212"/>
  <rect id="svg_15" height="18" width="18" stroke-width="0.5" stroke="#f4ebeb" fill="#FFFFFF" y="8" x="230"/>
  <rect id="svg_16" height="18" width="18" stroke-width="0.5" stroke="#f4ebeb" fill="#FFFFFF" y="8" x="248"/>
  <rect id="svg_17" height="18" width="18" stroke-width="0.5" stroke="#f4ebeb" fill="#000000" y="26" x="230"/>
  <rect id="svg_18" height="18" width="18" stroke-width="0.5" stroke="#f4ebeb" fill="#FFFFFF" y="8" x="281"/>
  <rect id="svg_19" height="18" width="18" stroke-width="0.5" stroke="#f4ebeb" fill="#000000" y="8" x="299"/>
  <rect id="svg_20" height="18" width="18" stroke-width="0.5" stroke="#f4ebeb" fill="#000000" y="8" x="317"/>
  <rect id="svg_21" height="18" width="18" stroke-width="0.5" stroke="#f4ebeb" fill="#000000" y="26" x="299"/>
  <rect id="svg_22" height="18" width="18" stroke-width="0.5" stroke="#f4ebeb" fill="#FFFFFF" y="8" x="349"/>
  <rect id="svg_23" height="18" width="18" stroke-width="0.5" stroke="#f4ebeb" fill="#000000" y="8" x="367"/>
  <rect id="svg_24" height="18" width="18" stroke-width="0.5" stroke="#f4ebeb" fill="#FFFFFF" y="8" x="385"/>
  <rect id="svg_25" height="18" width="18" stroke-width="0.5" stroke="#f4ebeb" fill="#000000" y="26" x="367"/>
  <rect id="svg_26" height="18" width="18" stroke-width="0.5" stroke="#f4ebeb" fill="#FFFFFF" y="8" x="418"/>
  <rect id="svg_27" height="18" width="18" stroke-width="0.5" stroke="#f4ebeb" fill="#FFFFFF" y="8" x="436"/>
  <rect id="svg_28" height="18" width="18" stroke-width="0.5" stroke="#f4ebeb" fill="#000000" y="8" x="454"/>
  <rect id="svg_29" height="18" width="18" stroke-width="0.5" stroke="#f4ebeb" fill="#000000" y="26" x="436"/>
  <rect id="svg_30" height="18" width="18" stroke-width="0.5" stroke="#f4ebeb" fill="#FFFFFF" y="8" x="486"/>
  <rect id="svg_31" height="18" width="18" stroke-width="0.5" stroke="#f4ebeb" fill="#FFFFFF" y="8" x="504"/>
  <rect id="svg_32" height="18" width="18" stroke-width="0.5" stroke="#f4ebeb" fill="#FFFFFF" y="8" x="522"/>
  <rect id="svg_33" height="18" width="18" stroke-width="0.5" stroke="#f4ebeb" fill="#FFFFFF" y="26" x="504"/>
 </g>
</svg>